<?xml version="1.0" standalone="no"?>
<!DOCTYPE svg PUBLIC "-//W3C//DTD SVG 20010904//EN"
 "http://www.w3.org/TR/2001/REC-SVG-20010904/DTD/svg10.dtd">
<svg version="1.0" xmlns="http://www.w3.org/2000/svg"
 width="300.000000pt" height="300.000000pt" viewBox="0 0 300.000000 300.000000"
 preserveAspectRatio="xMidYMid meet">
<metadata>
Created by potrace 1.10, written by Peter Selinger 2001-2011
</metadata>
<g transform="translate(0.000000,300.000000) scale(0.100000,-0.100000)"
fill="#000000" stroke="none">
<path d="M352 2977 c-31 -18 -53 -51 -54 -84 -2 -61 21 -232 36 -260 8 -17 39
-51 67 -77 34 -31 53 -56 55 -74 2 -14 17 -53 33 -86 l30 -61 -26 -27 c-36
-38 -24 -45 18 -11 40 33 189 187 189 197 0 3 -9 6 -19 6 -42 0 -31 73 29 190
20 39 50 58 35 23 -29 -67 -54 -146 -50 -153 3 -5 -5 -16 -17 -24 -15 -11 -17
-16 -8 -16 26 1 94 18 134 35 36 15 37 17 21 35 -9 10 -15 25 -13 33 2 9 -1
15 -7 14 -5 -1 -10 -12 -10 -24 -1 -32 -24 -53 -57 -53 -27 0 -28 2 -16 23 6
12 12 29 13 37 2 23 28 90 35 90 3 0 22 -16 40 -35 26 -27 31 -38 22 -44 -11
-6 -11 -10 0 -18 16 -13 88 -36 94 -31 6 7 -26 68 -37 68 -5 0 -9 -7 -9 -15 0
-8 -4 -15 -10 -15 -5 0 -10 7 -10 15 0 8 -20 34 -44 57 -56 53 -78 76 -138
139 -27 27 -57 49 -68 49 -12 0 -35 15 -53 34 -65 70 -147 95 -205 63z m142
-37 c44 -30 56 -47 56 -81 0 -22 15 -25 23 -5 5 12 11 13 37 3 25 -9 30 -16
25 -32 -25 -76 -36 -129 -41 -199 -9 -113 10 -87 24 34 6 52 16 96 22 98 5 2
7 8 4 13 -3 6 -3 22 1 36 l6 26 30 -29 c34 -32 37 -66 11 -109 -11 -17 -26
-53 -36 -81 -21 -64 -55 -99 -89 -90 -28 7 -39 34 -37 89 1 23 -3 37 -11 37
-8 0 -10 -17 -6 -60 5 -54 -2 -75 -17 -51 -3 5 -17 9 -32 9 -28 0 -87 50 -110
95 -16 30 -9 34 20 12 12 -9 15 -15 7 -15 -11 0 -11 -3 -1 -15 11 -13 14 -13
25 2 11 15 16 16 38 4 14 -8 34 -10 44 -6 14 5 5 11 -37 24 -96 31 -117 46
-122 88 -3 21 -4 39 -3 41 1 2 17 -9 35 -25 25 -21 46 -28 91 -31 62 -5 78
-14 60 -36 -10 -12 -5 -26 9 -26 4 0 10 23 14 50 5 36 11 50 23 50 12 0 14 -6
9 -27 -3 -16 -8 -62 -11 -103 -5 -83 2 -65 28 78 13 67 12 72 -4 67 -9 -3 -20
-2 -22 3 -9 14 7 31 28 29 14 -2 21 5 23 23 2 22 1 23 -11 8 -7 -9 -22 -16
-33 -15 -13 1 -20 -5 -22 -22 -2 -14 -11 -35 -19 -47 -13 -21 -20 -23 -61 -17
-52 6 -104 34 -127 66 -33 47 -9 157 34 157 24 0 64 -45 95 -107 15 -29 33
-53 41 -53 8 0 15 5 15 10 0 6 -4 10 -8 10 -13 0 -47 68 -39 76 3 4 12 -6 18
-22 8 -19 13 -24 17 -15 5 14 -23 44 -83 88 l-30 22 28 1 c16 0 48 -13 71 -30z
m86 -435 c19 -2 40 -3 47 -4 7 -1 10 -8 6 -18 -5 -15 -3 -16 8 -5 15 14 29 16
29 4 0 -4 -15 -16 -34 -26 -27 -14 -40 -16 -72 -8 -21 6 -51 13 -66 16 -52 12
-29 26 35 21 61 -4 61 -4 17 6 -25 6 -50 11 -57 13 -7 1 -16 6 -20 10 -4 5 10
5 32 1 22 -4 56 -9 75 -10z m-22 -73 c-22 -4 -24 -22 -3 -22 21 0 19 -17 -4
-30 -11 -5 -22 -10 -26 -10 -5 0 -35 62 -35 72 0 2 19 1 43 -1 23 -3 34 -6 25
-9z"/>
<path d="M370 2919 c6 -11 9 -25 7 -32 -2 -7 0 -20 5 -29 9 -19 67 -53 75 -44
6 6 -32 72 -60 104 -26 28 -41 29 -27 1z"/>
<path d="M340 2730 c0 -6 24 -22 53 -35 53 -25 103 -33 92 -15 -3 6 -14 10
-24 10 -10 0 -40 11 -67 25 -57 29 -54 28 -54 15z"/>
<path d="M2525 2973 c-16 -9 -48 -33 -71 -53 -23 -21 -56 -41 -74 -45 -19 -4
-47 -23 -69 -47 -76 -84 -177 -171 -189 -164 -14 9 -22 -48 -9 -57 7 -4 40 -6
74 -4 l62 5 -16 -24 c-12 -20 -13 -25 -2 -28 32 -11 122 -23 140 -19 10 3 19
0 19 -6 0 -6 -14 -14 -30 -18 -17 -3 -33 -9 -35 -13 -7 -12 50 -57 90 -71 40
-15 48 -34 10 -25 -14 4 -25 4 -25 0 0 -3 25 -42 56 -86 l57 -80 -42 21 -41
22 5 -63 5 -63 -17 30 -18 30 -2 -25 c-6 -46 -24 -100 -34 -100 -5 0 -17 17
-26 38 -13 30 -17 34 -22 19 -5 -14 -11 -6 -24 31 -33 91 -42 93 -53 13 -9
-68 -3 -98 10 -46 8 33 17 31 44 -11 24 -39 31 -69 7 -38 -19 25 -19 14 4 -65
10 -36 24 -127 30 -201 7 -74 16 -157 21 -183 13 -62 13 -97 0 -97 -5 0 -11
17 -12 38 l-1 37 -7 -45 c-5 -35 -8 -20 -9 65 -5 197 -18 240 -20 63 -1 -156
3 -193 20 -182 5 3 9 -4 9 -16 0 -18 -4 -20 -22 -14 -13 3 -25 8 -27 10 -2 2
-5 74 -6 161 -1 87 -7 169 -12 182 -7 17 -9 -28 -6 -142 2 -92 -1 -167 -5
-167 -5 0 -16 8 -24 18 -15 17 -24 77 -33 230 -10 148 -27 297 -41 347 -49
179 -79 258 -117 310 -9 11 -19 16 -23 12 -5 -4 -3 -11 3 -15 35 -22 108 -241
132 -397 14 -87 29 -266 27 -323 -1 -44 -14 -57 -23 -22 -3 10 -20 28 -39 39
-26 15 -34 27 -34 48 0 26 -64 368 -76 406 -3 9 -9 17 -13 17 -4 0 1 -39 11
-87 18 -85 33 -307 22 -325 -3 -5 -12 -4 -19 2 -8 7 -18 9 -23 6 -5 -3 -21 0
-36 7 -22 10 -26 18 -26 58 0 26 -3 61 -6 78 -4 18 -2 31 3 31 6 0 15 -35 21
-77 10 -77 10 -77 6 42 -2 66 -11 156 -19 200 -18 94 -64 249 -71 242 -3 -3 4
-38 16 -79 22 -72 43 -181 53 -266 9 -72 -16 -44 -34 39 -9 41 -26 115 -38
164 -37 152 -37 143 -6 155 45 17 36 34 85 -172 24 -102 50 -289 50 -362 1
-41 3 -47 11 -33 7 11 8 37 4 63 -4 31 -3 44 6 44 8 0 6 7 -5 19 -10 11 -16
23 -13 28 10 16 -39 262 -79 396 -5 14 2 17 40 17 49 0 52 4 36 44 -8 23 -15
25 -57 24 -26 0 -59 4 -74 10 -14 5 -37 8 -51 5 -14 -3 -29 0 -32 6 -4 6 -33
11 -65 11 -50 0 -60 3 -70 23 -10 19 -11 15 -6 -28 2 -27 10 -81 17 -120 13
-74 17 -570 5 -582 -4 -3 -16 2 -27 12 -16 14 -20 29 -18 74 l1 56 7 -50 c4
-27 7 86 6 252 -1 201 -5 306 -12 313 -8 8 -9 2 -6 -19 4 -28 2 -30 -34 -36
-80 -13 -85 -28 -11 -29 l42 -1 -2 -60 c-5 -187 -16 -500 -17 -502 0 0 -17 -3
-36 -5 -32 -3 -35 0 -41 27 -4 17 -7 96 -8 177 0 81 -5 149 -10 152 -11 7 -7
-338 4 -372 6 -18 12 -21 29 -15 11 4 50 7 86 7 l65 1 7 135 c3 74 4 169 2
210 -4 59 -2 70 6 50 12 -28 26 -124 40 -278 5 -56 11 -106 14 -110 2 -4 23
-6 45 -4 28 3 45 10 52 24 12 23 6 34 -12 22 -7 -4 -25 -8 -40 -9 -27 -3 -27
-2 -34 79 -6 73 -28 201 -69 401 -7 38 -12 75 -9 81 7 20 51 23 67 5 28 -32
48 -203 47 -396 -1 -79 10 -141 24 -137 6 1 8 42 6 97 -2 52 0 95 4 95 3 0 15
-5 26 -10 17 -10 19 -22 19 -120 0 -78 -4 -110 -12 -113 -7 -2 -10 -8 -6 -12
4 -4 13 -5 20 -2 10 3 14 32 13 111 0 58 3 106 6 106 8 0 19 -89 19 -151 l0
-46 94 -46 c52 -26 111 -63 132 -82 24 -22 43 -33 54 -30 14 4 16 1 12 -20 -2
-14 -6 -25 -8 -25 -2 0 -34 23 -71 51 -37 29 -96 64 -130 80 -33 16 -63 33
-65 38 -5 17 -121 -27 -145 -55 -25 -27 -32 -53 -10 -37 18 14 77 15 93 2 8
-6 28 -8 51 -4 31 5 43 2 61 -16 30 -27 14 -51 -20 -30 -12 7 -23 9 -27 4 -13
-20 -50 -21 -67 -2 -11 12 -30 19 -52 19 l-35 0 6 -41 c3 -23 11 -47 19 -54 7
-7 51 -22 98 -34 47 -13 93 -27 102 -32 25 -13 28 -12 28 11 0 13 -7 20 -20
20 -31 0 -183 41 -198 53 -18 14 -11 51 11 55 12 2 17 -3 17 -17 0 -38 56 -53
86 -24 24 25 71 23 80 -2 23 -66 20 -62 29 -41 5 12 3 36 -7 63 -9 24 -12 43
-8 43 18 0 145 -118 151 -140 4 -14 7 -59 8 -100 1 -80 -13 -113 -78 -183 -55
-60 -86 -71 -185 -68 -94 2 -165 -17 -207 -55 -15 -13 -19 -11 -38 21 -26 44
-26 45 -1 45 24 0 92 59 132 114 77 106 -3 186 -185 186 -99 0 -182 -22 -198
-52 -14 -26 -6 -66 25 -128 l24 -48 -56 -11 c-55 -11 -163 -60 -191 -87 -12
-11 -25 -8 -82 24 -41 22 -70 45 -73 57 -16 67 -38 236 -32 250 4 13 13 15 36
10 18 -4 30 -3 30 4 0 11 -16 17 -72 27 -21 3 -38 9 -38 13 0 13 149 125 157
118 2 -3 0 -14 -6 -25 -13 -24 -15 -62 -3 -62 4 0 17 11 29 24 31 33 74 40 91
15 23 -33 77 -22 93 18 13 34 53 28 57 -8 3 -24 -2 -27 -55 -41 -124 -34 -182
-42 -198 -28 -12 10 -15 10 -15 -3 0 -29 27 -41 68 -29 32 10 92 25 185 46 20
5 27 12 27 31 0 13 4 26 9 30 10 6 1 48 -19 85 -13 25 -3 22 34 -9 17 -15 18
-15 15 4 -3 11 -22 29 -44 41 -85 43 -117 195 -95 434 12 124 29 190 66 260
23 42 27 45 69 48 50 3 52 0 35 -58 -23 -79 -36 -235 -21 -244 8 -5 11 13 11
59 0 36 10 106 22 156 l22 91 43 -4 c38 -3 43 -1 43 17 0 11 -4 26 -9 33 -6
10 -10 9 -14 -7 -5 -22 -13 -23 -135 -25 l-53 -1 -34 -65 c-59 -114 -134 -283
-157 -355 -5 -16 -20 -88 -33 -160 -15 -86 -25 -124 -30 -111 -5 10 -3 38 2
62 6 23 6 47 2 51 -4 4 1 40 11 79 11 39 21 86 23 105 6 42 25 125 39 161 5
15 25 34 45 43 43 21 38 28 -14 19 l-41 -6 -25 -87 c-15 -47 -33 -129 -42
-181 -8 -52 -19 -109 -24 -126 -5 -17 -5 -54 0 -84 8 -54 1 -79 -20 -66 -14 9
-14 156 0 247 6 39 26 116 45 172 19 57 30 103 24 105 -13 5 56 141 75 149 8
3 15 10 15 16 0 5 10 24 23 41 34 45 39 56 29 56 -15 0 -160 -187 -187 -240
-20 -40 -30 -48 -77 -63 -86 -27 -88 -30 -105 -153 -11 -83 -13 -149 -7 -274
4 -91 7 -178 7 -193 0 -24 2 -26 13 -15 11 10 11 22 4 48 -13 44 -13 316 -1
339 6 10 11 49 12 87 1 38 6 79 10 91 7 20 82 63 108 63 5 0 19 12 31 28 16
20 20 22 15 7 -13 -39 -73 -257 -100 -365 -8 -30 -15 -75 -15 -100 0 -54 -14
-84 -23 -48 -3 12 -9 69 -13 126 -3 56 -11 102 -16 102 -5 0 -6 -61 -1 -147 4
-82 8 -160 8 -175 0 -16 3 -28 8 -28 16 0 4 -27 -28 -62 -36 -38 -73 -63 -82
-55 -13 14 -32 229 -33 367 0 169 12 263 56 428 6 20 24 13 34 -14 6 -14 15
-22 21 -19 6 4 8 13 5 21 -3 7 0 38 6 68 11 51 14 55 36 49 22 -5 23 -4 11 14
-17 28 -7 47 36 68 l38 17 -27 22 -26 21 55 34 c30 19 53 36 51 39 -7 6 -80
-35 -100 -57 -11 -12 -26 -21 -35 -21 -10 1 -2 13 23 35 27 24 65 43 123 60
135 42 233 64 313 71 64 5 84 3 125 -14 28 -12 61 -20 75 -18 14 1 30 0 35 -3
6 -3 21 -7 35 -9 29 -3 55 -12 168 -60 66 -27 81 -38 77 -52 -4 -12 5 -22 30
-35 20 -11 62 -56 99 -105 71 -95 80 -111 106 -184 18 -50 19 -50 19 -16 1 63
-65 176 -162 278 -23 23 -47 42 -53 42 -7 0 -16 20 -20 45 -6 43 -18 58 -26
34 -2 -7 -41 5 -100 30 -249 107 -458 113 -708 21 -45 -16 -105 -42 -135 -58
-56 -30 -75 -28 -75 10 0 10 -4 18 -9 18 -18 0 -17 -23 2 -61 15 -31 25 -39
58 -44 47 -8 51 -23 6 -27 -29 -3 -32 -6 -30 -35 2 -24 0 -31 -11 -27 -11 4
-16 -10 -21 -62 -7 -59 -9 -65 -21 -49 -20 28 -39 12 -74 -62 -18 -37 -38 -80
-46 -95 -9 -17 -11 -29 -4 -33 6 -3 13 2 16 12 17 48 45 106 49 101 3 -3 -2
-21 -10 -41 -17 -42 -35 -188 -35 -294 0 -39 -4 -74 -9 -78 -6 -3 -6 -16 -1
-33 11 -32 18 -262 8 -262 -11 0 -69 130 -89 199 -10 35 -22 104 -25 153 -4
54 -10 84 -15 76 -7 -10 -9 -9 -9 4 0 10 10 22 22 29 17 9 20 9 15 -3 -9 -24
24 -161 46 -188 16 -20 19 -21 13 -5 -14 38 -45 170 -52 221 -7 57 2 81 48
128 29 30 35 46 19 46 -12 0 -66 -68 -82 -103 -7 -15 -16 -27 -20 -27 -9 0
-19 -67 -25 -173 -5 -78 16 -240 32 -256 12 -12 12 11 -1 59 -8 30 -14 80 -14
110 l1 55 13 -70 c7 -38 22 -94 34 -124 11 -30 20 -56 18 -57 -6 -6 -103 21
-109 30 -4 6 -7 20 -7 31 0 17 1 17 10 -4 15 -39 20 -19 9 42 -18 92 -19 248
-4 286 12 29 12 32 -1 27 -8 -3 -15 -1 -15 5 0 5 7 12 15 15 19 8 19 30 0 38
-11 4 -19 -3 -26 -22 -6 -15 -19 -37 -31 -49 -11 -11 -18 -29 -15 -40 3 -15 6
-13 15 10 6 15 17 27 23 27 7 0 8 -6 3 -17 -5 -10 -9 -103 -10 -208 0 -154 -4
-199 -18 -239 -15 -44 -16 -59 -5 -118 12 -67 12 -68 -16 -108 -54 -77 -97
-107 -228 -155 -27 -9 -46 -19 -43 -22 8 -8 148 39 216 73 83 41 105 58 96 73
-5 8 -14 4 -28 -14 -10 -14 -23 -25 -28 -25 -12 0 33 69 45 69 6 1 27 -17 48
-38 52 -52 208 -127 236 -112 39 21 58 13 85 -35 14 -26 26 -49 26 -53 0 -4
-27 -31 -61 -60 -61 -54 -93 -63 -48 -13 32 34 62 82 56 88 -5 5 -87 -94 -87
-105 0 -10 -56 -41 -72 -41 -8 0 -5 7 8 18 31 26 144 167 144 180 0 7 -9 12
-20 12 -11 0 -20 -4 -20 -9 0 -11 -69 -56 -157 -102 -57 -30 -73 -35 -73 -22
0 12 -3 13 -15 3 -8 -6 -20 -10 -26 -8 -7 2 4 14 24 27 38 23 107 97 107 114
0 6 -29 -18 -64 -53 -80 -79 -125 -107 -187 -115 -86 -12 -56 -27 47 -23 113
4 126 -5 94 -66 -19 -38 -17 -65 7 -79 7 -4 13 -17 13 -27 0 -11 7 -20 15 -20
20 0 18 -20 -5 -50 -25 -32 -25 -65 1 -101 18 -26 19 -34 9 -59 -10 -25 -10
-34 4 -55 9 -13 25 -29 36 -35 14 -7 20 -21 20 -45 0 -49 34 -72 121 -81 55
-5 69 -10 67 -22 -4 -21 -28 -28 -28 -8 0 21 -16 21 -24 0 -5 -13 -15 -15 -45
-11 -33 4 -38 2 -34 -13 4 -14 -4 -20 -34 -27 -30 -7 -40 -15 -48 -40 -6 -17
-23 -41 -38 -53 -60 -47 -72 -112 -31 -154 29 -28 79 -35 115 -15 16 8 26 7
46 -6 36 -24 81 -36 89 -23 3 5 16 7 28 4 17 -4 28 2 45 25 13 18 29 28 37 25
7 -3 16 -1 19 4 4 6 15 10 26 10 10 0 19 4 19 9 0 5 30 14 67 21 68 13 123 50
123 82 0 7 -9 -1 -19 -18 -15 -25 -31 -34 -72 -44 -91 -22 -159 -19 -196 9
-37 27 -42 46 -16 55 15 6 13 10 -12 31 -30 23 -30 24 -10 39 16 13 17 17 6
25 -7 5 -10 14 -7 20 13 20 22 11 34 -34 7 -27 18 -45 26 -45 13 0 12 7 -3 40
-10 22 -21 43 -24 47 -15 15 -5 22 22 17 16 -4 46 -1 65 6 25 8 41 9 49 2 7
-6 39 -10 73 -9 33 0 66 -3 72 -7 7 -4 12 -31 13 -59 0 -38 3 -47 9 -32 4 11
6 37 3 58 -6 39 5 47 37 27 8 -5 19 -5 25 0 7 6 26 5 48 -2 28 -9 53 -8 104 1
49 9 69 9 71 1 3 -8 8 -8 17 0 22 18 7 41 -22 34 l-24 -6 20 33 c29 47 27 52
-19 46 -22 -3 -40 -2 -40 1 0 3 14 21 32 39 31 33 31 34 -11 45 -9 3 -1 13 23
27 34 21 36 25 22 40 -23 26 -20 30 18 24 49 -8 106 5 106 23 0 12 6 11 38 -4
24 -13 46 -17 62 -12 14 4 45 10 70 13 42 7 44 6 25 -9 -20 -15 -20 -16 9 -39
32 -26 74 -40 85 -29 3 4 0 9 -7 11 -7 3 -25 15 -39 27 l-26 23 23 47 c27 52
50 78 50 54 0 -8 -7 -23 -15 -34 -16 -22 -19 -34 -7 -34 5 0 14 12 21 27 9 19
15 23 23 15 8 -8 6 -18 -6 -36 -18 -29 -20 -36 -7 -36 5 0 13 9 16 20 11 35
24 22 22 -22 -2 -46 -35 -87 -69 -88 -27 0 -21 -24 14 -59 38 -37 58 -40 58
-8 0 12 3 33 7 46 4 17 3 22 -5 17 -7 -4 -12 -19 -12 -32 0 -16 -5 -24 -12
-21 -27 9 8 77 40 77 12 0 13 -12 8 -73 -7 -68 -6 -74 18 -96 32 -30 58 -22
96 34 41 60 40 90 -4 105 -19 6 -40 18 -46 26 -16 18 -2 18 30 -1 46 -26 52
-13 21 48 -12 23 -15 39 -9 43 14 9 25 -10 45 -76 l17 -55 14 60 c11 50 12 72
1 130 -7 39 -18 86 -25 105 -10 29 -9 40 5 63 9 17 22 26 31 23 8 -2 36 -11
63 -19 26 -8 47 -12 47 -7 0 4 -22 30 -50 57 -50 50 -57 66 -41 92 7 10 19 6
59 -22 71 -48 162 -78 218 -70 41 5 63 23 29 23 -19 0 -135 117 -176 177 -46
70 -33 80 48 35 66 -36 71 -37 168 -36 68 0 111 6 135 16 19 9 28 17 19 17
-47 3 -134 55 -202 123 -70 69 -75 78 -105 168 -27 85 -31 112 -36 255 -4 88
-14 207 -22 263 -16 96 -16 107 0 138 9 19 16 41 16 49 0 8 7 15 15 15 8 0 15
-4 15 -10 0 -5 4 -10 10 -10 6 0 8 21 5 51 -4 55 8 69 44 49 44 -23 47 13 4
55 -16 16 -16 18 1 30 16 12 16 14 -4 28 l-21 15 24 43 c14 24 28 58 31 76 5
21 23 44 52 68 68 56 98 109 100 175 1 30 7 74 14 97 22 72 -1 128 -67 162
-30 15 -72 13 -108 -6z m120 -27 c56 -43 52 -119 -9 -176 -23 -21 -29 -22 -36
-10 -14 22 -12 31 10 68 13 22 26 32 35 28 9 -3 15 0 15 8 0 8 -6 16 -12 19
-10 3 -10 7 0 19 7 9 9 19 4 22 -7 4 -83 -113 -89 -139 -2 -5 9 -18 23 -29 23
-16 29 -17 52 -5 15 7 30 15 35 17 14 7 -14 -53 -35 -75 -12 -13 -30 -23 -40
-23 -10 0 -18 -5 -18 -11 0 -6 -6 -9 -12 -6 -7 2 -17 -2 -23 -9 -5 -7 -22 -16
-37 -20 -26 -6 -28 -4 -28 28 0 41 15 58 50 58 14 0 35 7 46 16 18 15 18 15
-6 9 -14 -3 -33 -9 -42 -12 -12 -3 -20 1 -24 13 -3 11 -10 27 -15 36 -5 10 -9
24 -9 31 0 7 -8 29 -19 49 -18 37 -18 37 3 56 31 30 97 62 125 62 13 0 39 -11
56 -24z m-197 -110 c17 -35 29 -158 13 -136 -6 8 -11 27 -11 41 0 14 -11 48
-25 75 -30 58 -29 56 -8 52 10 -2 24 -16 31 -32z m-37 -31 c11 -25 23 -68 26
-95 3 -28 10 -50 14 -50 12 0 11 -43 -1 -76 -9 -22 -15 -26 -39 -21 -15 3 -33
1 -39 -5 -5 -5 -15 -8 -20 -4 -16 9 -96 175 -89 183 18 18 78 -70 92 -134 3
-18 11 -33 16 -33 9 0 4 34 -13 78 -4 13 -22 43 -38 67 -17 24 -30 48 -30 54
0 16 69 81 86 81 8 0 24 -20 35 -45z m-161 -95 c0 -5 15 -41 34 -80 32 -64 33
-70 15 -70 -20 0 -23 5 -33 51 -3 14 -16 42 -30 61 -13 20 -22 39 -18 42 9 10
32 7 32 -4z m-30 -42 c11 -12 20 -25 20 -29 0 -9 -89 -24 -97 -16 -6 7 38 66
49 66 4 1 16 -9 28 -21z m450 14 c0 -24 -100 -92 -137 -92 -13 0 -14 -3 -5
-12 9 -9 20 -8 49 6 l38 17 -25 -24 c-21 -20 -32 -23 -73 -19 -42 4 -48 7 -45
25 2 17 13 23 46 29 42 7 132 55 132 71 0 4 5 7 10 7 6 0 10 -4 10 -8z m-140
-149 c0 -4 -5 -21 -12 -40 -11 -31 -14 -32 -52 -27 l-41 5 28 -16 c15 -9 32
-13 37 -10 6 3 10 -1 10 -9 0 -27 -16 -26 -63 4 -44 28 -46 30 -36 62 5 18 9
34 9 35 0 2 27 3 60 3 33 0 60 -3 60 -7z m-731 -145 c16 -51 40 -145 51 -208
11 -63 25 -123 31 -133 15 -27 7 -29 -27 -8 -30 18 -31 22 -37 108 -3 49 -15
130 -27 181 l-22 92 -54 -6 c-42 -5 -54 -3 -54 7 0 8 -3 24 -6 37 -6 21 -4 22
54 22 l60 0 31 -92z m73 59 c14 -22 8 -27 -27 -27 -31 0 -55 20 -55 45 0 11
74 -6 82 -18z m81 -1 c15 -4 27 -12 27 -19 0 -22 -84 -6 -88 16 -3 14 1 18 15
14 10 -3 30 -8 46 -11z m-643 -218 c-6 -29 -14 -97 -17 -151 -6 -95 -7 -99
-34 -112 -15 -8 -30 -19 -33 -24 -7 -11 34 -2 51 11 11 9 30 -8 20 -18 -5 -5
14 -82 27 -115 6 -13 -3 -17 -55 -23 -62 -6 -77 -11 -67 -22 3 -3 25 0 48 6
23 6 44 9 47 6 11 -11 -10 -26 -35 -26 -36 -1 -128 -39 -187 -79 -26 -17 -50
-29 -54 -26 -3 4 2 13 12 20 13 9 16 20 12 38 -8 29 12 244 24 265 5 9 8 -34
7 -100 0 -64 2 -120 7 -124 4 -4 28 -3 53 2 44 8 47 11 50 44 13 147 40 264
90 394 21 53 39 94 42 92 2 -3 -1 -29 -8 -58z m1044 -164 c4 -15 4 -39 1 -55
-4 -18 -2 -29 4 -29 6 0 11 -12 11 -26 0 -15 5 -44 11 -64 12 -38 4 -170 -9
-170 -4 0 -8 28 -8 63 -1 34 -7 94 -13 132 -16 101 -21 175 -11 175 4 0 11
-12 14 -26z m-284 -249 c0 -22 7 -53 15 -69 15 -28 15 -28 -7 -14 -20 13 -23
25 -26 84 -2 49 1 65 8 54 5 -8 10 -33 10 -55z m-117 -86 c67 -34 126 -73 132
-87 5 -14 2 -13 -60 27 -54 35 -111 61 -138 62 -21 0 -21 1 -2 9 11 5 21 9 23
9 1 1 22 -8 45 -20z m-683 2 c0 -5 -10 -11 -22 -15 -36 -9 -41 -7 -28 9 13 16
50 21 50 6z m-75 -30 c-3 -6 -24 -20 -46 -30 -30 -15 -39 -16 -39 -5 0 7 19
22 43 32 44 20 53 20 42 3z m107 2 c-6 -2 -9 -9 -6 -14 4 -6 11 -6 19 1 8 6
29 10 47 8 45 -4 45 -32 1 -36 -18 -2 -33 -8 -33 -13 0 -15 -43 -28 -56 -18
-7 6 -21 6 -36 0 -15 -5 -31 -5 -41 0 -30 17 -19 38 26 50 23 6 49 15 57 19 8
5 20 9 25 9 6 0 4 -3 -3 -6z m613 -3 c4 -6 -7 -10 -24 -10 -17 0 -31 5 -31 10
0 6 11 10 24 10 14 0 28 -4 31 -10z m499 -210 c8 -24 8 -24 -8 -5 -25 32 -19
0 14 -73 17 -37 49 -88 70 -114 22 -25 40 -49 40 -53 0 -12 -67 29 -102 63
-46 44 -51 29 -6 -16 37 -39 126 -90 222 -128 79 -31 74 -45 -6 -19 -65 21
-147 65 -215 116 -29 22 -50 32 -47 24 3 -8 34 -35 68 -60 93 -69 91 -66 71
-78 -22 -12 -77 9 -139 54 -38 28 -45 38 -40 59 3 13 12 77 19 142 8 65 17
124 21 130 4 6 6 36 5 67 -1 30 2 69 6 86 6 22 9 4 14 -70 3 -55 9 -111 13
-125z m-1685 135 c16 -8 41 -29 56 -47 15 -18 40 -38 54 -44 26 -12 25 -12
-16 -19 -55 -10 -55 -25 0 -25 l42 0 14 -57 c7 -32 21 -76 30 -98 10 -22 21
-52 24 -66 6 -23 3 -27 -21 -32 -15 -3 -32 -1 -39 5 -7 5 -17 7 -23 3 -5 -3
-15 6 -20 22 -6 15 -15 36 -20 45 -18 31 -10 44 11 18 l21 -25 -6 33 c-7 39
10 43 25 5 5 -14 17 -32 26 -38 13 -10 13 -15 3 -34 -10 -19 -9 -23 2 -19 24
8 19 45 -12 92 -17 25 -35 46 -39 46 -4 0 -13 11 -19 24 -6 14 -26 29 -46 36
-20 6 -37 17 -38 23 0 7 -2 24 -3 39 -2 29 -18 54 -45 68 -12 6 -23 0 -44 -26
-33 -41 -28 -58 5 -20 27 31 37 32 55 9 18 -24 17 -30 -5 -36 -22 -5 -36 -64
-22 -98 11 -29 38 -54 69 -63 32 -10 27 8 -5 20 -38 14 -57 53 -49 98 4 20 12
36 18 36 6 0 8 -11 6 -25 -3 -13 -2 -24 1 -23 3 1 22 -6 42 -15 50 -22 91 -89
43 -70 -25 9 -27 -25 -4 -72 12 -25 20 -49 16 -52 -9 -9 -91 25 -136 58 -51
37 -76 91 -84 179 -6 61 -5 68 24 113 33 52 58 59 109 32z m311 -1 c0 -8 -43
-43 -53 -44 -4 0 0 11 10 25 16 22 43 34 43 19z m1167 -69 c15 -13 23 -25 16
-25 -7 0 -25 11 -40 25 -15 13 -23 25 -16 25 7 0 25 -11 40 -25z m0 -97 c-3
-22 -4 -21 -11 4 -5 16 -5 36 0 45 7 16 8 15 11 -4 3 -13 3 -33 0 -45z m51 43
c25 -14 56 -24 65 -23 10 3 9 -8 -9 -118 -8 -52 -21 -138 -29 -190 -8 -52 -21
-113 -29 -135 -8 -22 -17 -59 -21 -82 -6 -38 -5 -43 13 -43 10 0 27 -9 37 -21
19 -20 19 -20 -10 -9 -16 6 -35 16 -42 21 -8 7 -16 3 -28 -15 -22 -33 -39 -33
-53 -1 -18 39 -15 48 10 31 12 -9 28 -16 34 -16 15 0 40 133 58 310 22 215 25
270 16 270 -12 0 -19 -38 -21 -124 -4 -149 -17 -145 -18 7 -1 81 1 147 4 147
3 0 13 -4 23 -9z m-1278 -23 c0 -19 2 -20 10 -8 7 11 9 2 9 -30 -1 -84 80
-389 128 -483 31 -62 40 -56 12 8 -36 81 -59 171 -46 184 16 16 20 14 59 -17
35 -28 35 -28 20 -57 -14 -27 -18 -84 -10 -155 3 -21 -1 -25 -22 -22 -14 1
-39 9 -55 17 -17 7 -54 17 -83 21 -28 3 -52 9 -51 13 3 27 46 136 55 138 7 2
15 -9 19 -24 8 -33 57 -113 85 -138 28 -26 25 -11 -9 38 -29 43 -111 211 -111
229 0 5 -7 16 -15 24 -8 9 -15 23 -14 32 0 14 2 13 9 -3 8 -20 9 -19 9 1 1 12
-6 40 -14 64 -8 23 -20 71 -26 106 -12 70 -34 79 -25 10 l6 -41 -15 45 c-19
58 -19 58 8 63 54 10 67 8 67 -15z m751 -39 c23 -13 21 -14 -34 -17 -65 -3
-170 15 -162 28 8 13 169 4 196 -11z m-187 -23 c51 -21 106 -27 166 -17 30 5
61 6 69 1 19 -10 23 -63 7 -85 -12 -17 -16 -17 -60 13 -53 36 -93 43 -196 32
-41 -4 -79 -4 -83 0 -12 11 10 58 30 63 30 8 32 8 67 -7z m676 -36 c0 -22 -4
-40 -10 -40 -11 0 -14 63 -3 73 11 12 13 8 13 -33z m-549 -45 c24 -9 57 -27
73 -40 l29 -23 -34 -32 c-19 -17 -48 -39 -64 -49 -30 -18 -31 -18 -90 16 -33
18 -68 33 -77 33 -9 0 -26 16 -38 36 -28 45 -19 56 53 65 86 10 102 10 148 -6z
m523 -49 c-3 -8 1 -39 10 -70 17 -58 22 -156 7 -156 -10 0 -54 63 -72 103 -7
15 -16 27 -21 27 -11 0 -11 1 22 -81 35 -87 36 -92 9 -59 l-20 25 20 -41 c11
-22 27 -46 35 -53 16 -14 22 -51 9 -51 -12 1 -65 77 -107 153 l-38 67 49 48
c26 26 58 59 71 75 24 30 34 35 26 13z m-621 -94 c32 -17 57 -41 77 -74 17
-26 30 -52 30 -57 0 -5 7 -14 16 -22 13 -11 14 -9 9 13 -6 23 -2 28 49 53 59
29 150 42 210 31 100 -19 164 -150 121 -252 -8 -19 -12 -41 -9 -49 5 -11 -12
-56 -44 -118 -2 -4 3 -4 12 -1 9 3 16 2 16 -2 -1 -12 -29 -49 -33 -43 -1 2
-16 23 -31 47 -16 23 -35 42 -42 42 -18 0 -17 20 0 42 18 24 40 24 31 1 -22
-54 3 -67 45 -25 16 17 30 38 30 46 0 11 -10 6 -30 -16 l-31 -33 7 38 c6 33 4
37 -15 37 -14 0 -32 -16 -53 -45 -31 -43 -32 -44 -77 -39 -25 3 -64 13 -86 21
-124 47 -198 50 -262 11 -19 -11 -41 -17 -52 -13 -10 3 -42 37 -70 75 -28 39
-55 70 -61 70 -21 0 -10 -41 14 -51 23 -11 86 -96 86 -116 0 -5 -6 -17 -13
-27 -12 -17 -19 -15 -99 34 -48 28 -92 58 -99 66 -21 26 0 28 46 5 25 -13 52
-20 60 -18 16 7 9 41 -12 58 -12 11 -13 8 -8 -14 8 -30 8 -30 -70 8 -49 25
-52 28 -60 81 -8 56 9 116 45 158 48 54 220 121 280 109 14 -3 46 -17 73 -31z
m774 -44 c-7 -50 31 -102 113 -158 34 -23 59 -44 56 -47 -9 -9 -89 44 -140 94
-28 26 -47 40 -43 30 5 -13 3 -17 -5 -15 -15 5 -23 72 -12 97 4 9 6 27 5 41
-3 22 -1 23 14 10 13 -10 16 -24 12 -52z m-15 -122 c21 -19 72 -50 111 -70 88
-43 58 -48 -33 -5 -60 28 -130 82 -130 101 0 14 11 9 52 -26z m-115 4 c3 -16
-13 -48 -20 -40 -2 3 -7 18 -11 33 -6 24 -4 28 11 25 10 -2 19 -10 20 -18z
m-1437 -9 c0 -4 -18 -20 -40 -35 -22 -14 -40 -29 -40 -32 0 -7 88 6 130 21 35
11 70 10 70 -3 0 -4 -26 -19 -58 -34 -32 -15 -79 -45 -104 -67 -51 -45 -68
-51 -68 -22 0 10 -7 21 -15 25 -29 11 -15 25 20 19 23 -4 35 -2 35 6 0 6 -13
11 -29 11 -38 0 -46 13 -21 35 14 13 17 22 10 35 -12 23 -4 30 36 30 18 0 36
5 39 10 8 12 35 13 35 1z m170 -20 c0 -10 -7 -22 -16 -25 -22 -8 -24 -5 -17
22 7 27 33 29 33 3z m-37 -166 c-6 -20 -6 -20 -14 0 -10 26 -11 90 -1 99 10
10 23 -74 15 -99z m-35 34 c2 -56 1 -60 -17 -54 -28 9 -65 -3 -79 -26 -16 -25
1 -53 45 -74 29 -14 31 -19 28 -58 -3 -58 -3 -57 -19 -57 -7 0 -16 -9 -19 -20
-3 -11 -9 -20 -15 -20 -12 0 -13 48 -1 56 5 3 9 11 9 17 -1 7 -9 2 -19 -10
-10 -12 -21 -19 -25 -16 -12 12 -6 36 12 49 16 13 16 13 0 14 -10 0 -18 -4
-18 -10 0 -5 -4 -10 -10 -10 -15 0 -12 43 5 67 10 14 12 24 5 28 -5 3 -10 -1
-10 -9 0 -9 -7 -16 -16 -16 -17 0 -12 31 10 60 9 13 9 13 -5 3 -15 -12 -29 -8
-29 8 0 9 149 139 159 139 4 0 8 -27 9 -61z m92 14 c0 -20 4 -32 10 -28 6 3
10 17 10 31 0 36 18 29 26 -11 10 -53 29 -58 20 -6 -5 33 -3 42 6 39 7 -3 15
-20 18 -39 4 -24 11 -34 25 -36 11 -2 14 0 8 3 -16 7 -17 54 -2 54 5 0 15 -13
20 -30 6 -16 15 -30 20 -30 5 0 4 11 -1 25 -12 31 0 32 27 3 28 -33 81 -78 90
-78 5 0 46 -23 92 -51 79 -47 88 -50 130 -44 52 7 147 33 173 46 33 17 103 10
154 -16 63 -32 76 -31 97 5 18 29 40 39 51 21 3 -5 -5 -29 -19 -53 -25 -44
-26 -45 -82 -48 -84 -4 -122 -1 -145 11 -15 8 -22 8 -28 -1 -4 -7 -36 -15 -71
-19 -73 -8 -96 -18 -80 -34 17 -17 13 -34 -16 -62 -24 -21 -26 -27 -13 -35 13
-8 12 -13 -4 -41 -15 -26 -16 -33 -5 -40 15 -9 28 -12 42 -10 5 1 7 -4 5 -10
-6 -18 -98 -49 -145 -49 -41 0 -43 1 -43 31 0 23 10 39 39 65 27 25 37 41 34
55 -6 23 -5 23 -48 5 l-35 -15 0 29 c0 30 -18 80 -29 80 -26 -1 -36 -25 -41
-98 -5 -74 -7 -81 -37 -106 -33 -28 -58 -27 -66 4 -7 29 9 102 25 111 8 5 26
17 39 28 24 19 24 19 5 40 -11 12 -25 20 -32 17 -8 -3 -12 4 -11 21 1 15 -5
30 -16 37 -15 9 -22 7 -36 -11 -10 -12 -22 -39 -26 -60 -6 -33 -48 -93 -64
-93 -4 0 -12 13 -19 30 -20 43 8 124 49 145 30 16 41 57 18 70 -6 4 -8 13 -5
20 7 19 -36 45 -55 34 -9 -4 -24 -27 -34 -50 l-19 -42 -18 59 c-23 76 -25 176
-3 168 9 -4 15 -19 15 -41z m1200 -76 c0 -9 4 -18 9 -21 10 -7 18 -47 26 -129
l6 -59 -24 28 c-40 46 -77 9 -47 -47 10 -17 7 -19 -20 -19 -43 0 -40 -32 5
-59 19 -11 35 -24 35 -29 0 -12 -72 -62 -88 -62 -8 0 -10 14 -6 44 8 55 -1 96
-22 96 -12 0 -13 9 -8 53 12 86 34 105 98 81 10 -4 16 -1 16 8 0 23 -30 58
-50 58 -16 0 -18 5 -13 38 3 20 12 50 20 65 l14 28 24 -30 c14 -16 25 -36 25
-44z m-472 -16 c38 -18 122 -41 153 -41 31 0 32 -1 17 -16 -15 -15 -20 -15
-72 5 -31 12 -74 21 -96 21 -26 0 -42 6 -49 17 -8 15 -13 15 -36 5 -14 -7 -36
-10 -49 -6 -18 4 -29 -2 -50 -26 -16 -20 -32 -30 -41 -26 -8 3 -15 1 -15 -4 0
-6 -4 -10 -10 -10 -17 0 -11 40 8 46 9 3 31 12 49 21 65 32 143 38 191 14z
m-782 -17 c20 -12 33 -56 39 -129 1 -11 7 -30 13 -42 17 -31 16 -33 -19 -33
-18 0 -47 -9 -65 -21 -34 -21 -54 -19 -54 6 0 25 46 48 80 40 19 -4 30 -3 30
4 0 6 -5 11 -12 11 -38 0 -67 83 -33 96 27 11 16 22 -29 28 -24 4 -52 13 -62
21 -19 15 -19 15 1 30 21 17 75 12 111 -11z m141 -11 c-2 -10 -8 -26 -12 -36
-7 -16 -4 -17 20 -11 40 10 28 -18 -13 -30 -26 -7 -32 -15 -41 -54 -5 -26 -7
-50 -5 -54 3 -4 0 -8 -5 -8 -9 0 -13 11 -13 40 -1 3 2 17 6 33 5 22 3 27 -11
27 -17 1 -17 2 1 15 10 8 27 32 37 55 18 39 46 57 36 23z m-344 -65 c6 -39 -8
-61 -24 -37 -18 27 -21 61 -9 87 11 25 13 26 20 7 4 -11 10 -37 13 -57z m928
58 c-7 -8 -28 -17 -49 -21 -20 -3 -48 -13 -60 -22 -33 -21 -40 -8 -12 22 14
15 30 23 40 20 10 -3 28 -1 41 4 37 15 54 14 40 -3z m-899 -150 c26 -53 77
-105 135 -138 29 -16 53 -36 53 -44 0 -17 17 -19 22 -2 7 19 110 -7 170 -42
42 -25 46 -30 23 -25 -43 10 -83 10 -142 1 -50 -7 -53 -7 -53 13 0 22 -8 25
-94 36 -78 10 -96 22 -96 64 0 29 -7 42 -35 66 -34 29 -35 31 -23 68 6 20 14
37 18 37 3 0 14 -15 22 -34z m423 17 c-3 -10 -9 -31 -12 -47 l-6 -28 27 17
c19 12 30 15 37 8 7 -7 -1 -16 -28 -29 -38 -19 -38 -19 -41 -87 -2 -55 -6 -67
-16 -58 -9 8 -12 27 -8 62 l5 51 -27 -17 c-14 -10 -26 -21 -26 -26 0 -5 -4 -9
-10 -9 -21 0 -8 26 24 48 26 18 36 34 46 77 8 35 18 55 28 55 9 0 12 -6 7 -17z
m145 -115 l0 -60 23 16 c41 29 56 36 61 28 3 -5 -15 -23 -40 -41 -47 -33 -49
-40 -28 -95 12 -31 -16 -16 -29 15 l-12 32 -33 -28 c-48 -40 -51 -23 -4 20 40
35 40 36 35 95 -3 32 -3 66 1 75 12 32 26 2 26 -57z m-339 20 c7 -13 26 -35
43 -50 l31 -26 -56 2 c-57 2 -135 38 -123 57 8 14 24 11 24 -5 0 -15 52 -40
71 -34 7 2 -2 10 -19 17 -30 12 -42 38 -25 54 14 14 43 6 54 -15z m-61 -256
c-13 -5 -13 -39 0 -47 6 -3 7 -17 4 -30 -3 -12 -1 -26 6 -30 8 -5 6 -13 -6
-26 -16 -18 -16 -19 3 -19 35 0 46 -23 22 -49 -11 -12 -24 -19 -30 -16 -5 4
-9 1 -9 -4 0 -6 -5 -11 -11 -11 -6 0 -9 7 -5 15 7 18 -5 20 -22 3 -9 -9 -15
-9 -24 0 -7 7 -21 12 -32 12 -17 0 -18 2 -6 10 27 17 -15 23 -48 6 -26 -13
-31 -13 -51 0 -19 14 -21 13 -21 0 0 -9 5 -16 10 -16 6 0 10 -5 10 -12 0 -6
-9 -3 -20 7 -13 11 -20 31 -20 52 0 29 10 43 60 91 33 32 60 62 60 67 0 14 61
40 87 37 11 -2 25 3 29 10 5 8 10 3 16 -17 4 -18 4 -31 -2 -33z"/>
<path d="M2603 2928 c-19 -24 -44 -79 -41 -90 2 -5 16 13 32 42 26 48 31 76 9
48z"/>
<path d="M2360 2815 c7 -8 10 -22 6 -30 -3 -8 -1 -15 3 -15 5 0 15 -33 22 -72
6 -40 16 -77 21 -83 19 -21 1 129 -23 188 -6 15 -18 27 -26 27 -13 0 -13 -3
-3 -15z"/>
<path d="M1352 1178 c-20 -20 -13 -32 7 -14 11 10 25 15 30 11 18 -11 12 -23
-15 -29 -25 -7 -26 -8 -9 -26 10 -11 23 -20 29 -20 6 0 5 5 -2 12 -7 7 -12 16
-12 20 0 13 28 9 33 -4 3 -7 6 -2 6 13 1 28 -15 49 -39 49 -9 0 -21 -5 -28
-12z"/>
<path d="M1853 1113 c24 -6 21 -30 -5 -36 -12 -4 -19 -9 -16 -13 4 -3 19 -4
33 0 43 11 27 59 -18 55 -7 -1 -4 -3 6 -6z"/>
<path d="M1287 1103 c-9 -9 -7 -121 4 -158 5 -19 6 -2 3 47 -3 46 -1 86 6 98
10 19 1 28 -13 13z"/>
<path d="M742 208 c-7 -7 -12 -18 -12 -25 0 -6 -8 -16 -17 -22 -14 -8 -15 -12
-4 -25 7 -9 22 -16 31 -16 10 0 21 -6 23 -12 3 -7 6 -3 6 10 1 17 -5 22 -24
22 -30 0 -32 11 -5 27 26 17 45 53 27 53 -7 0 -18 -5 -25 -12z"/>
<path d="M817 133 c-15 -17 -13 -18 27 -18 42 0 42 0 20 18 -12 9 -24 17 -27
17 -2 0 -11 -8 -20 -17z"/>
<path d="M2059 2650 c-20 -23 -33 -43 -29 -45 4 -3 24 15 45 40 45 56 33 59
-16 5z"/>
<path d="M2070 2562 c14 -9 37 -29 53 -44 23 -23 27 -24 27 -8 0 11 -18 28
-44 44 -49 29 -75 35 -36 8z"/>
<path d="M893 2495 c6 -20 14 -32 19 -27 10 10 -7 62 -21 62 -5 0 -5 -15 2
-35z"/>
<path d="M1309 2480 c-12 -3 -25 -12 -27 -19 -3 -10 0 -12 12 -8 10 4 25 7 35
7 9 0 26 6 36 14 19 13 18 14 -7 13 -15 -1 -37 -4 -49 -7z"/>
<path d="M2203 2454 c-4 -10 0 -20 10 -25 8 -5 21 -26 28 -47 19 -59 40 -105
45 -100 8 9 -60 188 -72 188 -2 0 -7 -7 -11 -16z"/>
<path d="M805 2451 c-3 -2 -5 -25 -5 -50 l1 -46 14 40 c8 22 15 41 15 43 0 1
10 2 22 2 12 0 18 3 14 8 -8 8 -54 11 -61 3z"/>
<path d="M1090 2438 c-19 -5 -39 -14 -44 -19 -6 -5 -20 -9 -32 -9 -13 0 -26
-5 -29 -10 -4 -7 5 -9 27 -5 45 8 168 45 168 50 0 8 -53 4 -90 -7z"/>
<path d="M2010 2401 c0 -5 7 -14 15 -21 22 -18 45 -112 56 -224 5 -56 14 -132
20 -171 5 -38 11 -92 14 -120 5 -58 24 -125 36 -125 5 0 6 12 4 28 -3 15 -16
119 -30 232 -27 217 -43 295 -75 366 -17 39 -40 59 -40 35z"/>
<path d="M750 2347 c0 -23 -4 -57 -9 -75 -5 -17 -6 -32 -2 -32 14 0 35 81 32
128 -2 41 -21 23 -21 -21z"/>
<path d="M1402 2363 c-13 -3 -27 -15 -32 -27 -17 -45 -33 -219 -26 -294 13
-152 19 -192 27 -186 5 3 9 -2 9 -10 0 -9 5 -16 10 -16 7 0 7 6 1 18 -11 21
-17 160 -7 183 5 11 1 19 -9 23 -9 3 -13 10 -10 16 3 6 8 54 10 108 5 129 13
154 53 166 18 5 32 13 32 17 0 9 -17 10 -58 2z"/>
<path d="M2386 2331 c-6 -10 10 -61 19 -61 8 0 2 61 -6 66 -4 2 -10 0 -13 -5z"/>
<path d="M515 2279 c-19 -17 -32 -35 -29 -40 3 -5 10 -6 16 -3 6 4 19 7 30 8
24 1 56 66 33 66 -8 0 -30 -14 -50 -31z"/>
<path d="M2320 2292 c0 -9 9 -23 20 -30 23 -14 26 -3 10 29 -13 24 -30 25 -30
1z"/>
<path d="M613 2261 c-10 -15 -9 -20 2 -25 8 -3 12 -12 9 -20 -3 -8 -1 -17 5
-21 7 -4 11 10 11 39 0 49 -8 57 -27 27z"/>
<path d="M572 2228 c-7 -9 -6 -33 2 -75 13 -71 33 -101 21 -33 -4 25 -6 62 -6
83 2 40 -1 44 -17 25z"/>
<path d="M904 2193 c-6 -10 -12 -41 -13 -70 -1 -28 -6 -64 -10 -80 -15 -52 -1
-416 18 -464 5 -15 7 58 4 191 -5 196 5 376 23 424 8 22 -9 20 -22 -1z"/>
<path d="M667 2164 c-10 -11 -9 -54 2 -54 14 0 22 30 13 46 -4 8 -11 11 -15 8z"/>
<path d="M757 2147 c-4 -10 -7 -36 -7 -57 0 -50 29 -202 41 -215 13 -13 12 61
-1 85 -6 11 -13 47 -17 80 -6 57 -5 61 16 67 24 6 23 30 -2 25 -8 -1 -17 5
-19 15 -3 17 -4 17 -11 0z"/>
<path d="M1446 2080 c-10 -108 -8 -247 4 -271 8 -14 6 -19 -9 -24 -10 -3 -23
-5 -27 -4 -19 3 -34 -2 -34 -11 0 -5 23 -10 51 -10 45 0 50 2 43 18 -4 9 -10
100 -13 202 -6 178 -6 182 -15 100z"/>
<path d="M2135 1500 c-3 -5 -25 -10 -48 -10 -50 0 -38 -20 14 -25 37 -2 59 9
59 31 0 16 -16 19 -25 4z"/>
<path d="M561 1244 c-82 -51 -173 -79 -258 -78 -39 0 -70 -3 -67 -7 14 -23
120 -49 197 -49 133 1 161 10 223 71 60 59 63 75 7 36 -73 -50 -132 -69 -228
-73 -72 -2 -81 -1 -44 5 56 11 120 38 178 77 24 16 53 35 65 41 20 12 20 13 1
12 -11 -1 -44 -16 -74 -35z"/>
<path d="M685 1186 c-15 -19 -50 -51 -79 -70 -53 -35 -86 -66 -70 -66 32 0
196 152 181 166 -3 3 -17 -11 -32 -30z"/>
<path d="M1120 1205 c0 -7 78 -45 92 -45 7 0 -9 12 -35 25 -50 26 -57 28 -57
20z"/>
<path d="M1747 425 c-15 -14 -46 -28 -68 -31 -21 -4 -39 -10 -39 -15 0 -31
139 23 140 54 0 21 1 21 -33 -8z"/>
<path d="M1611 431 c-21 -13 5 -24 29 -11 11 6 20 13 20 15 0 8 -34 5 -49 -4z"/>
<path d="M1810 421 c0 -14 5 -18 20 -14 24 6 26 19 4 27 -23 9 -24 8 -24 -13z"/>
<path d="M1907 423 c-4 -3 -7 -21 -7 -40 0 -18 -4 -33 -10 -33 -5 0 -10 5 -10
12 0 6 -10 2 -23 -10 -13 -12 -28 -22 -35 -22 -6 0 -15 -7 -20 -16 -7 -13 -13
-13 -36 -3 -23 11 -29 10 -36 -1 -7 -12 -11 -12 -26 1 -15 12 -18 11 -32 -9
-18 -28 -32 -28 -32 -1 0 16 -4 19 -20 14 -11 -4 -32 -8 -46 -9 -31 -3 -79
-46 -51 -46 9 0 17 4 17 9 0 9 41 23 48 16 3 -2 -3 -16 -12 -30 -10 -15 -16
-34 -13 -43 2 -12 9 -4 21 23 16 35 19 38 26 20 5 -12 3 -24 -4 -30 -7 -5 -11
-23 -10 -40 2 -35 -21 -65 -50 -65 -12 0 -27 -4 -34 -9 -18 -11 -134 11 -166
32 -24 16 -26 23 -27 90 -1 60 -2 67 -10 42 -5 -16 -7 -49 -4 -72 7 -51 47
-89 103 -98 81 -13 92 -17 100 -32 7 -12 13 -13 30 -4 17 9 24 7 40 -14 20
-25 42 -33 42 -15 0 21 31 9 40 -16 8 -21 13 -24 25 -14 8 6 23 9 35 5 23 -7
60 18 60 42 0 10 8 8 29 -8 62 -45 149 7 136 81 -4 19 -13 48 -21 64 -8 16
-14 36 -14 44 0 18 -46 62 -66 62 -18 0 -18 -36 0 -47 52 -30 91 -163 48 -163
-10 0 -23 -5 -29 -11 -6 -6 -21 -9 -34 -7 -19 2 -23 8 -21 29 2 22 -1 25 -33
25 -33 0 -35 -2 -35 -31 0 -40 -3 -43 -40 -37 -34 5 -40 27 -10 37 24 8 26 21
4 29 -22 8 -22 8 -26 -16 -5 -32 -28 -35 -28 -4 0 17 -5 26 -16 26 -21 0 -11
48 14 66 14 11 15 16 5 33 -16 26 -16 31 1 31 7 0 19 6 25 14 6 7 22 11 36 8
14 -2 31 1 39 7 10 8 16 9 21 1 3 -5 17 -10 31 -10 14 0 23 4 20 9 -12 19 23
29 121 34 56 3 109 9 117 14 15 8 15 11 -3 27 -18 17 -19 17 -26 -3 -3 -12
-11 -21 -16 -21 -6 0 -7 9 -4 21 4 12 1 32 -6 45 -10 19 -21 24 -49 24 -20 0
-40 -3 -43 -7z m69 -49 c-36 -26 -51 -10 -20 21 13 12 20 13 28 5 8 -8 6 -15
-8 -26z"/>
<path d="M1835 220 c-7 -12 9 -45 41 -83 30 -35 30 -32 2 24 -12 24 -21 50
-20 57 3 14 -14 16 -23 2z"/>
<path d="M1820 143 c0 -23 5 -33 15 -33 19 0 19 21 0 46 -14 18 -14 17 -15
-13z"/>
</g>
</svg>
